<mxfile host="app.diagrams.net" modified="2021-07-06T08:32:28.740Z" agent="5.0 (Windows NT 10.0; Win64; x64) AppleWebKit/537.36 (KHTML, like Gecko) Chrome/91.0.4472.124 Safari/537.36 Edg/91.0.864.64" etag="3CwczdLG8JFDE5HuZS4p" version="14.8.4" type="github">
  <diagram id="prtHgNgQTEPvFCAcTncT" name="Page-1">
    <mxGraphModel dx="1219" dy="550" grid="1" gridSize="10" guides="1" tooltips="1" connect="1" arrows="1" fold="1" page="1" pageScale="1" pageWidth="827" pageHeight="1169" math="0" shadow="0">
      <root>
        <mxCell id="0" />
        <mxCell id="1" parent="0" />
        <mxCell id="usc_Tm3Q-d2UaEJACpp6-23" style="edgeStyle=orthogonalEdgeStyle;rounded=0;orthogonalLoop=1;jettySize=auto;html=1;exitX=1;exitY=0.5;exitDx=0;exitDy=0;entryX=0;entryY=0.5;entryDx=0;entryDy=0;" edge="1" parent="1" source="usc_Tm3Q-d2UaEJACpp6-2" target="usc_Tm3Q-d2UaEJACpp6-3">
          <mxGeometry relative="1" as="geometry" />
        </mxCell>
        <mxCell id="usc_Tm3Q-d2UaEJACpp6-2" value="数据库" style="shape=datastore;whiteSpace=wrap;html=1;" vertex="1" parent="1">
          <mxGeometry x="160" y="180" width="60" height="60" as="geometry" />
        </mxCell>
        <mxCell id="usc_Tm3Q-d2UaEJACpp6-16" style="edgeStyle=orthogonalEdgeStyle;rounded=0;orthogonalLoop=1;jettySize=auto;html=1;exitX=1;exitY=0.5;exitDx=0;exitDy=0;entryX=0;entryY=0.5;entryDx=0;entryDy=0;" edge="1" parent="1" source="usc_Tm3Q-d2UaEJACpp6-3" target="usc_Tm3Q-d2UaEJACpp6-10">
          <mxGeometry relative="1" as="geometry">
            <Array as="points">
              <mxPoint x="385" y="210" />
              <mxPoint x="385" y="80" />
            </Array>
          </mxGeometry>
        </mxCell>
        <mxCell id="usc_Tm3Q-d2UaEJACpp6-17" style="edgeStyle=orthogonalEdgeStyle;rounded=0;orthogonalLoop=1;jettySize=auto;html=1;exitX=1;exitY=0.5;exitDx=0;exitDy=0;entryX=0;entryY=0.5;entryDx=0;entryDy=0;" edge="1" parent="1" source="usc_Tm3Q-d2UaEJACpp6-3" target="usc_Tm3Q-d2UaEJACpp6-11">
          <mxGeometry relative="1" as="geometry" />
        </mxCell>
        <mxCell id="usc_Tm3Q-d2UaEJACpp6-18" style="edgeStyle=orthogonalEdgeStyle;rounded=0;orthogonalLoop=1;jettySize=auto;html=1;exitX=1;exitY=0.5;exitDx=0;exitDy=0;" edge="1" parent="1" source="usc_Tm3Q-d2UaEJACpp6-3" target="usc_Tm3Q-d2UaEJACpp6-12">
          <mxGeometry relative="1" as="geometry" />
        </mxCell>
        <mxCell id="usc_Tm3Q-d2UaEJACpp6-19" style="edgeStyle=orthogonalEdgeStyle;rounded=0;orthogonalLoop=1;jettySize=auto;html=1;exitX=1;exitY=0.5;exitDx=0;exitDy=0;entryX=0;entryY=0.5;entryDx=0;entryDy=0;" edge="1" parent="1" source="usc_Tm3Q-d2UaEJACpp6-3" target="usc_Tm3Q-d2UaEJACpp6-13">
          <mxGeometry relative="1" as="geometry" />
        </mxCell>
        <mxCell id="usc_Tm3Q-d2UaEJACpp6-21" style="edgeStyle=orthogonalEdgeStyle;rounded=0;orthogonalLoop=1;jettySize=auto;html=1;exitX=1;exitY=0.5;exitDx=0;exitDy=0;entryX=0;entryY=0.5;entryDx=0;entryDy=0;" edge="1" parent="1" source="usc_Tm3Q-d2UaEJACpp6-3" target="usc_Tm3Q-d2UaEJACpp6-14">
          <mxGeometry relative="1" as="geometry" />
        </mxCell>
        <mxCell id="usc_Tm3Q-d2UaEJACpp6-22" style="edgeStyle=orthogonalEdgeStyle;rounded=0;orthogonalLoop=1;jettySize=auto;html=1;exitX=0;exitY=0.5;exitDx=0;exitDy=0;entryX=1;entryY=0.5;entryDx=0;entryDy=0;" edge="1" parent="1" source="usc_Tm3Q-d2UaEJACpp6-3" target="usc_Tm3Q-d2UaEJACpp6-2">
          <mxGeometry relative="1" as="geometry" />
        </mxCell>
        <mxCell id="usc_Tm3Q-d2UaEJACpp6-25" style="edgeStyle=orthogonalEdgeStyle;rounded=0;orthogonalLoop=1;jettySize=auto;html=1;exitX=1;exitY=0.5;exitDx=0;exitDy=0;entryX=0;entryY=0.5;entryDx=0;entryDy=0;" edge="1" parent="1" source="usc_Tm3Q-d2UaEJACpp6-3" target="usc_Tm3Q-d2UaEJACpp6-24">
          <mxGeometry relative="1" as="geometry" />
        </mxCell>
        <mxCell id="usc_Tm3Q-d2UaEJACpp6-3" value="连接模块" style="rounded=1;whiteSpace=wrap;html=1;" vertex="1" parent="1">
          <mxGeometry x="250" y="190" width="90" height="40" as="geometry" />
        </mxCell>
        <mxCell id="usc_Tm3Q-d2UaEJACpp6-10" value="支行管理模块" style="rounded=1;whiteSpace=wrap;html=1;" vertex="1" parent="1">
          <mxGeometry x="430" y="60" width="90" height="40" as="geometry" />
        </mxCell>
        <mxCell id="usc_Tm3Q-d2UaEJACpp6-11" value="员工管理模块" style="rounded=1;whiteSpace=wrap;html=1;" vertex="1" parent="1">
          <mxGeometry x="430" y="120" width="90" height="40" as="geometry" />
        </mxCell>
        <mxCell id="usc_Tm3Q-d2UaEJACpp6-12" value="客户管理模块" style="rounded=1;whiteSpace=wrap;html=1;" vertex="1" parent="1">
          <mxGeometry x="430" y="180" width="90" height="40" as="geometry" />
        </mxCell>
        <mxCell id="usc_Tm3Q-d2UaEJACpp6-20" style="edgeStyle=orthogonalEdgeStyle;rounded=0;orthogonalLoop=1;jettySize=auto;html=1;exitX=0;exitY=0.5;exitDx=0;exitDy=0;entryX=1;entryY=0.5;entryDx=0;entryDy=0;" edge="1" parent="1" source="usc_Tm3Q-d2UaEJACpp6-13" target="usc_Tm3Q-d2UaEJACpp6-3">
          <mxGeometry relative="1" as="geometry" />
        </mxCell>
        <mxCell id="usc_Tm3Q-d2UaEJACpp6-13" value="账户管理模块" style="rounded=1;whiteSpace=wrap;html=1;" vertex="1" parent="1">
          <mxGeometry x="430" y="240" width="90" height="40" as="geometry" />
        </mxCell>
        <mxCell id="usc_Tm3Q-d2UaEJACpp6-14" value="业务统计模块" style="rounded=1;whiteSpace=wrap;html=1;" vertex="1" parent="1">
          <mxGeometry x="430" y="300" width="90" height="40" as="geometry" />
        </mxCell>
        <mxCell id="usc_Tm3Q-d2UaEJACpp6-24" value="贷款管理模块" style="rounded=1;whiteSpace=wrap;html=1;" vertex="1" parent="1">
          <mxGeometry x="430" y="360" width="90" height="40" as="geometry" />
        </mxCell>
      </root>
    </mxGraphModel>
  </diagram>
</mxfile>
